<svg id="Слой_1" enable-background="new 0 0 512 512" height="512" viewBox="0 0 512 512" width="512" xmlns="http://www.w3.org/2000/svg"><path d="m512 256c0 141.4-114.6 256-256 256s-256-114.6-256-256l256-256c141.4 0 256 114.6 256 256z" fill="#0052b4"/><path d="m256.8 135.1v-134.1c-141.8 0-256.8 115.1-256.8 256.9h134v-75.5l75.4 75.5h46.7l.7-.7v-46.7l-75.4-75.4z" fill="#f0f0f0"/><path clip-rule="evenodd" d="m30.5 136.4c36-60.3 74.1-90.6 106.6-105.9h114.4v66.3h-154.7v154.6h-66.3zm130.7-6.4 90.3 90.3v31.1l-121.5-121.4z" fill="#d80027" fill-rule="evenodd"/><g fill="#fff"><path d="m148.9 297 14.3 29.7 32.4-7.4-14.5 29.6 26 20.5-32.4 7.3.1 32.9-25.9-20.6-25.9 20.5.1-32.9-32.4-7.3 26-20.5-14.5-29.6 32.4 7.4z"/><path d="m382.3 353.1 7.2 14.9 16.2-3.7-7.3 14.8 13 10.2-16.2 3.6v16.5l-12.9-10.2-12.9 10.2v-16.4l-16.2-3.6 13-10.2-7.3-14.8 16.2 3.7z"/><path d="m315.6 195.7 7.2 14.8 16.2-3.7-7.3 14.8 13 10.2-16.2 3.7v16.5l-12.9-10.4-12.9 10.4v-16.5l-16.2-3.7 13-10.2-7.3-14.8 16.2 3.7z"/><path d="m382.3 105.7 7.2 14.9 16.2-3.7-7.3 14.8 13 10.2-16.2 3.6v16.5l-12.9-10.2-13 10.2v-16.5l-16.2-3.6 13-10.2-7.3-14.8 16.2 3.7z"/><path d="m440.5 173.2 7.2 14.8 16.2-3.7-7.3 14.8 13 10.2-16.2 3.7v16.5l-12.9-10.4-12.9 10.4v-16.5l-16.2-3.7 13-10.2-7.3-14.8 16.2 3.7z"/><path d="m398.8 252 5.6 17.2h18.2l-14.6 10.6 5.6 17.2-14.8-10.7-14.7 10.7 5.6-17.2-14.7-10.6h18.2z"/></g></svg>