<svg id="Слой_1" height="512" viewBox="0 0 512 512" width="512" xmlns="http://www.w3.org/2000/svg" data-name="Слой 1"><path d="m256 512c141.38 0 256-114.63 256-256s-114.61-256-256-256-256 114.63-256 256 114.62 256 256 256z" fill="#f0f0f0"/><path d="m0 256a255.84 255.84 0 0 0 144.69 230.55v-461.08c-85.62 41.39-144.69 128.99-144.69 230.53zm512 0a255.84 255.84 0 0 0 -144.7-230.53v461.08a255.84 255.84 0 0 0 144.7-230.55zm-167 11.1-44.52 22.33 11.12 22.19h-44.48v33.38h-22.26v-33.38h-44.51l11.14-22.19-44.49-22.33 22.23-11.1v-22.32l44.52 22.32-22.26-44.5h22.26l22.25-33.42 22.26 33.42h22.26l-22.25 44.5 44.53-22.33v22.33z" fill="#d80027" fill-rule="evenodd"/></svg>