<svg width="1434" height="233" viewBox="0 0 1434 233" fill="none" xmlns="http://www.w3.org/2000/svg">
<path d="M318.215 128V2.6H415.875V27.87H350.895V53.33H402.575V77.08H350.895V102.73H418.345V128H318.215ZM552.078 128H518.448L509.708 99.69H466.768L457.838 128H424.968L469.048 2.6H508.188L552.078 128ZM472.848 77.46H503.628L488.238 26.73L472.848 77.46ZM615.125 0.699997C626.779 0.699997 637.039 2.53666 645.905 6.20999C654.899 9.75666 662.689 15.0133 669.275 21.98L653.505 43.07C648.059 37.37 642.169 33.1267 635.835 30.34C629.629 27.4267 622.535 25.97 614.555 25.97C609.869 25.97 606.069 26.4767 603.155 27.49C600.242 28.5033 598.152 29.8967 596.885 31.67C595.619 33.4433 594.985 35.47 594.985 37.75C594.985 40.41 596.189 42.69 598.595 44.59C601.129 46.3633 605.182 47.8833 610.755 49.15L631.845 53.9C644.385 56.8133 653.569 61.0567 659.395 66.63C665.222 72.2033 668.135 79.6133 668.135 88.86C668.135 97.7267 665.855 105.263 661.295 111.47C656.735 117.55 650.465 122.173 642.485 125.34C634.505 128.38 625.385 129.9 615.125 129.9C606.765 129.9 598.785 129.013 591.185 127.24C583.585 125.34 576.745 122.68 570.665 119.26C564.585 115.84 559.455 111.913 555.275 107.48L571.045 85.63C574.212 89.3033 578.075 92.5967 582.635 95.51C587.322 98.2967 592.389 100.513 597.835 102.16C603.409 103.807 609.045 104.63 614.745 104.63C619.179 104.63 622.852 104.187 625.765 103.3C628.805 102.413 631.022 101.083 632.415 99.31C633.809 97.5367 634.505 95.4467 634.505 93.04C634.505 90.38 633.555 88.1633 631.655 86.39C629.755 84.49 626.145 82.9067 620.825 81.64L597.645 76.51C590.552 74.8633 584.219 72.71 578.645 70.05C573.199 67.2633 568.892 63.59 565.725 59.03C562.559 54.3433 560.975 48.5167 560.975 41.55C560.975 33.6967 563.129 26.73 567.435 20.65C571.742 14.4433 577.949 9.56666 586.055 6.02C594.162 2.47333 603.852 0.699997 615.125 0.699997ZM794.287 2.6L750.017 82.21V128H717.337V82.21L673.067 2.6H706.887L724.557 36.99L733.867 57.89L743.367 36.99L761.037 2.6H794.287Z" fill="white"/>
<path d="M842.78 102.73H905.67V128H810.1V2.6H842.78V102.73ZM924.396 128V2.6H1022.06V27.87H957.076V53.33H1008.76V77.08H957.076V102.73H1024.53V128H924.396ZM1158.26 128H1124.63L1115.89 99.69H1072.95L1064.02 128H1031.15L1075.23 2.6H1114.37L1158.26 128ZM1079.03 77.46H1109.81L1094.42 26.73L1079.03 77.46ZM1232.69 2.6C1247.64 2.6 1259.23 6.14666 1267.46 13.24C1275.82 20.2067 1280 29.5167 1280 41.17C1280 53.9633 1275.89 63.7167 1267.65 70.43C1259.42 77.1433 1247.83 80.5 1232.88 80.5L1229.84 82.21H1204.95V128H1172.84V2.6H1232.69ZM1228.13 59.03C1234.47 59.03 1239.22 57.7633 1242.38 55.23C1245.55 52.6967 1247.13 48.6433 1247.13 43.07C1247.13 37.6233 1245.55 33.6333 1242.38 31.1C1239.22 28.5667 1234.47 27.3 1228.13 27.3H1204.95V59.03H1228.13ZM1247.32 65.87L1287.41 128H1251.31L1219.2 73.09L1247.32 65.87ZM1416.89 2.6V128H1380.6L1341.65 60.17L1332.15 41.55H1331.96L1332.72 64.73V128H1303.84V2.6H1340.13L1379.08 70.43L1388.58 89.05H1388.77L1388.01 65.87V2.6H1416.89Z" fill="#FFC43A"/>
<path d="M335.89 184.1C340.09 184.1 343.777 184.823 346.95 186.27C350.123 187.717 352.83 189.863 355.07 192.71L349.68 198.94C347.767 196.513 345.667 194.74 343.38 193.62C341.14 192.453 338.527 191.87 335.54 191.87C333.58 191.87 331.947 192.127 330.64 192.64C329.38 193.153 328.447 193.83 327.84 194.67C327.28 195.51 327 196.443 327 197.47C327 198.73 327.49 199.803 328.47 200.69C329.45 201.53 331.13 202.23 333.51 202.79L342.12 204.75C346.693 205.777 349.96 207.317 351.92 209.37C353.927 211.377 354.93 213.99 354.93 217.21C354.93 220.243 354.137 222.857 352.55 225.05C350.963 227.197 348.747 228.853 345.9 230.02C343.053 231.14 339.787 231.7 336.1 231.7C332.88 231.7 329.917 231.327 327.21 230.58C324.55 229.787 322.17 228.713 320.07 227.36C317.97 226.007 316.22 224.443 314.82 222.67L320.28 216.16C321.353 217.653 322.683 218.983 324.27 220.15C325.857 221.317 327.653 222.25 329.66 222.95C331.713 223.603 333.86 223.93 336.1 223.93C338.013 223.93 339.623 223.72 340.93 223.3C342.283 222.833 343.287 222.203 343.94 221.41C344.64 220.57 344.99 219.567 344.99 218.4C344.99 217.187 344.57 216.16 343.73 215.32C342.937 214.433 341.443 213.757 339.25 213.29L329.87 211.19C327.163 210.537 324.83 209.697 322.87 208.67C320.957 207.597 319.487 206.243 318.46 204.61C317.48 202.93 316.99 200.947 316.99 198.66C316.99 195.907 317.737 193.433 319.23 191.24C320.723 189.047 322.87 187.32 325.67 186.06C328.517 184.753 331.923 184.1 335.89 184.1ZM402.81 184.8V192.57H387.34V231H377.68V192.57H362.14V184.8H402.81ZM452.774 184.8V212.8C452.774 219.1 451.094 223.837 447.734 227.01C444.374 230.137 439.474 231.7 433.034 231.7C426.594 231.7 421.694 230.137 418.334 227.01C414.974 223.837 413.294 219.1 413.294 212.8V184.8H422.954V212.38C422.954 216.253 423.77 219.123 425.404 220.99C427.084 222.857 429.627 223.79 433.034 223.79C436.44 223.79 438.96 222.857 440.594 220.99C442.227 219.123 443.044 216.253 443.044 212.38V184.8H452.774ZM485.251 184.8C492.484 184.8 498.084 186.807 502.051 190.82C506.018 194.787 508.001 200.48 508.001 207.9C508.001 215.273 506.018 220.967 502.051 224.98C498.084 228.993 492.484 231 485.251 231H467.401V184.8H485.251ZM484.761 223.3C489.148 223.3 492.438 221.993 494.631 219.38C496.871 216.72 497.991 212.893 497.991 207.9C497.991 202.907 496.871 199.103 494.631 196.49C492.438 193.83 489.148 192.5 484.761 192.5H477.061V223.3H484.761ZM555.716 184.8L539.336 213.71V231H529.676V213.71L513.296 184.8H523.586L531.006 198.66L534.506 205.87L538.076 198.66L545.496 184.8H555.716ZM626.634 231H616.624L612.774 219.73H595.064L591.214 231H581.344L598.214 184.8H609.764L626.634 231ZM597.234 212.59H610.604L603.884 192.43L597.234 212.59ZM676.677 184.8V231H665.617L649.447 203.84L645.457 196.28H645.387L645.667 204.26V231H636.987V184.8H647.977L664.147 211.89L668.137 219.52H668.277L667.997 211.54V184.8H676.677ZM729.335 184.8L712.955 213.71V231H703.295V213.71L686.915 184.8H697.205L704.625 198.66L708.125 205.87L711.695 198.66L719.115 184.8H729.335ZM747.756 231L734.316 184.8H744.606L753.706 222.95L762.946 184.8H772.186L781.566 222.95L790.596 184.8H800.466L787.026 231H776.176L769.736 205.8L767.566 194.88H767.426L765.256 205.8L758.886 231H747.756ZM851.103 184.8V231H841.443V184.8H851.103ZM821.073 184.8V231H811.413V184.8H821.073ZM846.483 203.77V211.54H816.243V203.77H846.483ZM866.661 231V184.8H901.311V192.57H876.321V204.05H895.991V211.47H876.321V223.23H902.291V231H866.661ZM934.828 184.8C940.054 184.8 944.161 186.06 947.148 188.58C950.134 191.1 951.628 194.483 951.628 198.73C951.628 203.257 950.134 206.733 947.148 209.16C944.161 211.54 940.078 212.73 934.898 212.73L933.918 213.29H923.978V231H914.458V184.8H934.828ZM933.708 205.94C936.414 205.94 938.421 205.403 939.728 204.33C941.081 203.21 941.758 201.507 941.758 199.22C941.758 196.933 941.081 195.253 939.728 194.18C938.421 193.06 936.414 192.5 933.708 192.5H923.978V205.94H933.708ZM939.378 207.97L954.358 231H943.508L931.118 210.77L939.378 207.97ZM965.536 231V184.8H1000.19V192.57H975.196V204.05H994.866V211.47H975.196V223.23H1001.17V231H965.536ZM1073 184.8L1056.62 213.71V231H1046.96V213.71L1030.58 184.8H1040.87L1048.29 198.66L1051.79 205.87L1055.36 198.66L1062.78 184.8H1073ZM1100.58 184.1C1105.15 184.1 1109.09 185.057 1112.41 186.97C1115.72 188.883 1118.26 191.613 1120.04 195.16C1121.86 198.707 1122.77 202.953 1122.77 207.9C1122.77 212.847 1121.86 217.093 1120.04 220.64C1118.26 224.187 1115.72 226.917 1112.41 228.83C1109.09 230.743 1105.15 231.7 1100.58 231.7C1096 231.7 1092.04 230.743 1088.68 228.83C1085.36 226.917 1082.8 224.187 1080.98 220.64C1079.2 217.093 1078.32 212.847 1078.32 207.9C1078.32 202.953 1079.2 198.707 1080.98 195.16C1082.8 191.613 1085.36 188.883 1088.68 186.97C1092.04 185.057 1096 184.1 1100.58 184.1ZM1100.58 192.01C1097.96 192.01 1095.75 192.617 1093.93 193.83C1092.11 195.043 1090.71 196.84 1089.73 199.22C1088.79 201.553 1088.33 204.447 1088.33 207.9C1088.33 211.307 1088.79 214.2 1089.73 216.58C1090.71 218.96 1092.11 220.757 1093.93 221.97C1095.75 223.183 1097.96 223.79 1100.58 223.79C1103.14 223.79 1105.34 223.183 1107.16 221.97C1108.98 220.757 1110.35 218.96 1111.29 216.58C1112.27 214.2 1112.76 211.307 1112.76 207.9C1112.76 204.447 1112.27 201.553 1111.29 199.22C1110.35 196.84 1108.98 195.043 1107.16 193.83C1105.34 192.617 1103.14 192.01 1100.58 192.01ZM1174.58 184.8V212.8C1174.58 219.1 1172.9 223.837 1169.54 227.01C1166.18 230.137 1161.28 231.7 1154.84 231.7C1148.4 231.7 1143.5 230.137 1140.14 227.01C1136.78 223.837 1135.1 219.1 1135.1 212.8V184.8H1144.76V212.38C1144.76 216.253 1145.58 219.123 1147.21 220.99C1148.89 222.857 1151.43 223.79 1154.84 223.79C1158.25 223.79 1160.77 222.857 1162.4 220.99C1164.03 219.123 1164.85 216.253 1164.85 212.38V184.8H1174.58ZM1221.42 231L1207.98 184.8H1218.27L1227.37 222.95L1236.61 184.8H1245.85L1255.23 222.95L1264.26 184.8H1274.13L1260.69 231H1249.84L1243.4 205.8L1241.23 194.88H1241.09L1238.92 205.8L1232.55 231H1221.42ZM1321.7 231H1311.69L1307.84 219.73H1290.13L1286.28 231H1276.41L1293.28 184.8H1304.83L1321.7 231ZM1292.3 212.59H1305.67L1298.95 192.43L1292.3 212.59ZM1371.74 184.8V231H1360.68L1344.51 203.84L1340.52 196.28H1340.45L1340.73 204.26V231H1332.05V184.8H1343.04L1359.21 211.89L1363.2 219.52H1363.34L1363.06 211.54V184.8H1371.74ZM1423.84 184.8V192.57H1408.37V231H1398.71V192.57H1383.17V184.8H1423.84Z" fill="white" fill-opacity="0.6"/>
<path d="M180.744 104.165L181.5 103.209V69.1637L121 92.0944L60.5 69.1637V103.208L61.2562 104.163C61.8802 104.954 77.0755 123.511 121 123.511C164.925 123.511 180.119 104.953 180.744 104.165Z" fill="#FFC43A"/>
<path d="M236.328 220.251H32.1406C26.6249 220.251 21.3352 218.175 17.435 214.479C13.5348 210.784 11.3437 205.772 11.3437 200.545C11.3437 195.319 13.5348 190.306 17.435 186.611C21.3352 182.915 26.6249 180.839 32.1406 180.839H236.328C237.832 180.839 239.275 180.273 240.339 179.265C241.402 178.257 242 176.89 242 175.465C242 174.039 241.402 172.672 240.339 171.664C239.275 170.657 237.832 170.09 236.328 170.09H32.1406C23.6164 170.09 15.4413 173.299 9.41377 179.01C3.38623 184.722 0 192.468 0 200.545C0 208.622 3.38623 216.369 9.41377 222.08C15.4413 227.791 23.6164 231 32.1406 231H236.328C237.832 231 239.275 230.434 240.339 229.426C241.402 228.418 242 227.051 242 225.626C242 224.2 241.402 222.833 240.339 221.825C239.275 220.817 237.832 220.251 236.328 220.251Z" fill="#FFC43A"/>
<path d="M18.9062 200.545C18.9062 202.192 19.2486 203.823 19.9137 205.344C20.5787 206.866 21.5536 208.248 22.7825 209.412C24.0114 210.577 25.4704 211.501 27.076 212.131C28.6817 212.761 30.4027 213.085 32.1406 213.085H236.328V188.005H32.1406C28.6306 188.005 25.2644 189.326 22.7825 191.678C20.3006 194.03 18.9062 197.219 18.9062 200.545Z" fill="#FFC43A"/>
<path d="M200.406 96.6405C205.627 96.6405 209.859 92.6301 209.859 87.6832C209.859 82.7362 205.627 78.7259 200.406 78.7259C195.185 78.7259 190.953 82.7362 190.953 87.6832C190.953 92.6301 195.185 96.6405 200.406 96.6405Z" fill="#FFC43A"/>
<path d="M183.977 60.5066L119.654 37.2893L122.346 30.5892L194.341 56.5797L225.71 44.688L121 5L16.2897 44.688L121 84.376L183.977 60.5066Z" fill="#FFC43A"/>
<path d="M196.625 65.0751V71.9948C199.109 71.4177 201.703 71.4177 204.187 71.9948V60.1354L194.341 56.5815L183.976 60.5101L196.625 65.0751Z" fill="#FFC43A"/>
<path d="M34.0312 137.844C34.0312 139.745 34.828 141.567 36.2463 142.911C37.6645 144.255 39.588 145.01 41.5937 145.01H180.136L182.656 130.678H41.5937C39.588 130.678 37.6645 131.433 36.2463 132.777C34.828 134.121 34.0312 135.944 34.0312 137.844Z" fill="#FFC43A"/>
<path d="M211.75 137.844L205.613 102.953C202.246 104.091 198.567 104.091 195.199 102.953L189.062 137.844H211.75Z" fill="#FFC43A"/>
<path d="M41.5937 162.925H206.078C207.582 162.925 209.025 162.358 210.089 161.35C211.152 160.342 211.75 158.976 211.75 157.55C211.75 156.125 211.152 154.758 210.089 153.75C209.025 152.742 207.582 152.176 206.078 152.176H41.5937C37.5824 152.176 33.7352 150.666 30.8988 147.978C28.0623 145.29 26.4688 141.645 26.4688 137.844C26.4688 134.043 28.0623 130.398 30.8988 127.71C33.7352 125.022 37.5824 123.512 41.5937 123.512H78.1962C71.3683 120.958 65.048 117.324 59.5052 112.764H41.5937C34.5738 112.764 27.8414 115.406 22.8775 120.109C17.9137 124.813 15.125 131.192 15.125 137.844C15.125 144.496 17.9137 150.875 22.8775 155.579C27.8414 160.282 34.5738 162.925 41.5937 162.925Z" fill="#FFC43A"/>
<path d="M185.808 112.764H182.498C176.955 117.324 170.634 120.959 163.806 123.512H183.917L185.808 112.764Z" fill="#FFC43A"/>
</svg>
